P1
10 10
0000000000
0001111000
0010000100
0101001010
0100000010
0101001010
0100110010
0010000100
0001111000
0000000000
